<svg width="53" height="73" viewBox="0 0 53 73" fill="none" xmlns="http://www.w3.org/2000/svg">
<path d="M33.1117 0.748023C32.2646 0.69792 31.6557 0.85738 31.6557 0.85738C31.6557 0.85738 26.0726 2.26199 23.8236 3.42663C21.5747 4.59127 21.7339 7.80479 21.7339 7.80479L22.4993 13.3856L12.1378 25.074L10.3686 26.3983C10.3686 26.3984 8.72409 26.9613 5.47111 27.8047C2.21813 28.6481 1.89549 30.7765 1.89549 30.7765C1.89549 30.7765 0.448721 51.6592 0.489111 54.0688C0.527578 56.4784 1.77623 57.2816 1.77623 57.2816L21.8184 70.6472L31.1885 71.2435C33.0911 71.3854 33.8298 70.6745 33.8298 70.6745C41.2131 74.5082 42.2657 69.5962 42.2657 69.5962L45.4163 65.536L45.4735 63.178C49.4776 61.4742 48.6814 54.8589 48.6814 54.8589C53.1682 52.1895 50.8506 45.0715 50.8506 45.0715C57.0754 35.5937 47.7993 30.8958 47.7993 30.8958C47.7993 30.8958 38.2005 28.847 37.7186 28.2446C37.2364 27.6422 37.2762 23.2651 37.2762 23.2651C37.2762 23.2651 38.8035 21.4996 40.1288 18.4073C41.454 15.315 40.6108 13.6664 40.6108 13.6664C40.6108 13.6664 39.2056 9.12919 37.5992 4.43047C36.5953 1.49376 34.5236 0.831558 33.1117 0.748023Z" fill="white" fill-opacity="0.98995"/>
<path d="M31.9897 4.12277C31.6339 4.10787 31.2626 4.14006 30.8814 4.19728C30.1192 4.31157 29.3169 4.54571 28.5532 4.83588C27.7895 5.12607 27.0662 5.47245 26.4859 5.82233C25.9055 6.17224 25.4643 6.44421 25.1988 6.96781C25.041 7.27896 25.0275 7.54822 25.0224 7.86978C25.0171 8.19136 25.043 8.55411 25.087 8.95066C25.175 9.74372 25.3385 10.6767 25.5193 11.5696C25.8246 13.0772 26.1252 14.2718 26.2275 14.6731L13.5254 28.8686L5.68342 31.3758C5.573 31.4118 5.47456 31.4774 5.39878 31.5655C5.323 31.6535 5.27277 31.7606 5.25355 31.8752C5.25355 31.8752 3.29419 43.0223 4.10807 54.3475C4.15697 55.0281 4.57928 55.4197 5.12185 55.9526C5.66443 56.4856 6.39489 57.0834 7.26122 57.7293C8.99389 59.0209 11.2631 60.5048 13.5254 61.9161C18.0498 64.7388 22.5426 67.2609 22.5426 67.2609C22.6313 67.3121 22.731 67.3411 22.8333 67.3455L31.3511 67.711C31.4726 67.7156 31.5929 67.6853 31.6977 67.6237C31.8025 67.5621 31.8874 67.4717 31.9425 67.3633C31.9425 67.3633 32.3233 66.6006 33.1252 65.9271C33.1809 65.879 33.2526 65.8435 33.3116 65.7978L38.065 68.623C38.1947 68.6982 38.3469 68.7252 38.4946 68.6992C38.6423 68.6733 38.7762 68.5961 38.8725 68.4812L42.0853 64.677C42.1801 64.5641 42.2328 64.4218 42.2345 64.2745L42.2595 61.2157L43.1093 61.2205C43.2 61.2212 43.2898 61.2025 43.3726 61.1657C44.2775 60.7594 44.834 59.928 45.1642 59.0238C45.4943 58.1196 45.6255 57.1133 45.6735 56.1514C45.7604 54.4151 45.5634 53.1367 45.522 52.8441C46.5651 52.5582 47.5369 52.145 47.9546 51.3508C48.4742 50.3629 48.5446 49.2065 48.4615 48.1032C48.3073 46.0566 47.6382 44.3992 47.5322 44.13C48.6963 42.798 49.4353 41.5053 49.6169 40.3358C49.8161 39.0527 49.5092 37.921 49.0255 37.0211C48.0582 35.2213 46.3966 34.2506 46.3966 34.2506C46.3438 34.2203 46.2869 34.1977 46.2277 34.1835L36.2613 31.5546L34.6461 30.2029L33.4733 22.7834L37.6055 16.0496C37.6521 15.9729 37.6819 15.8872 37.693 15.7981C37.7042 15.7091 37.6964 15.6186 37.6701 15.5328C37.6701 15.5328 36.8687 12.9458 35.9233 10.2924C35.4507 8.96572 34.9459 7.62612 34.4772 6.56527C34.2428 6.03485 34.0178 5.56903 33.8013 5.20357C33.5849 4.83814 33.4717 4.5412 33.0037 4.33888C32.6853 4.20122 32.3454 4.13787 31.9897 4.12277ZM31.925 5.40739C32.1426 5.41845 32.3048 5.45403 32.4319 5.49933C32.4425 5.52721 32.5819 5.6456 32.7028 5.84966C32.8749 6.14028 33.0914 6.56835 33.314 7.07218C33.7592 8.07987 34.2559 9.40404 34.7229 10.7149C35.6078 13.1986 36.2875 15.3878 36.3653 15.6372L32.9016 21.2702L31.9996 19.178C31.9508 19.0592 31.8673 18.9579 31.76 18.8874C31.6527 18.8169 31.5266 18.7805 31.3983 18.7829C31.2929 18.7854 31.1897 18.8141 31.0981 18.8663C31.0065 18.9185 30.9294 18.9926 30.8735 19.082C30.8176 19.1714 30.7847 19.2733 30.7779 19.3785C30.771 19.4837 30.7904 19.589 30.8342 19.6849L32.186 22.8082L33.2693 29.6587L24.759 24.2295C24.6348 24.1462 24.4852 24.1092 24.3365 24.1252C24.2045 24.1394 24.0802 24.1947 23.9811 24.2832C23.8821 24.3716 23.8132 24.4889 23.7841 24.6185C23.7551 24.7481 23.7673 24.8836 23.8192 25.0059C23.871 25.1282 23.9598 25.2312 24.0731 25.3005L27.1419 27.261L22.1276 28.8512C22.0433 28.8724 21.9643 28.9106 21.8954 28.9635C21.8265 29.0163 21.7692 29.0828 21.7269 29.1587C21.6847 29.2345 21.6584 29.3182 21.6498 29.4047C21.6411 29.4911 21.6502 29.5783 21.6765 29.6611C21.7029 29.7438 21.7459 29.8203 21.8029 29.8859C21.8599 29.9514 21.9298 30.0045 22.0081 30.042C22.0864 30.0795 22.1716 30.1006 22.2584 30.1039C22.3452 30.1072 22.4318 30.0927 22.5127 30.0613L28.5358 28.1505L35.6 32.6628L35.6149 32.673C35.6279 32.681 35.6412 32.6885 35.6548 32.6956C35.6734 32.7056 35.6925 32.7148 35.712 32.723C35.7559 32.7413 35.8017 32.7547 35.8486 32.7629C35.8478 32.7629 35.8495 32.7629 35.8486 32.7629L45.7753 35.3769C45.8099 35.398 47.152 36.2179 47.9072 37.6231C48.2897 38.3348 48.5116 39.1678 48.3595 40.1476C48.2166 41.0672 47.7125 42.1514 46.6052 43.3853L37.5109 42.3168C37.4671 42.3123 37.423 42.3123 37.3792 42.3168C37.2176 42.3247 37.065 42.394 36.9526 42.5104C36.8402 42.6268 36.7764 42.7817 36.7742 42.9436C36.772 43.1054 36.8316 43.262 36.9408 43.3814C37.0499 43.5009 37.2005 43.5742 37.3619 43.5865L46.3916 44.6475C46.5566 45.0922 47.0689 46.5331 47.1942 48.1958C47.2673 49.1655 47.1721 50.108 46.8289 50.7601C46.4876 51.4089 45.9605 51.8386 44.8336 51.9404L39.4839 51.7366C39.4434 51.7327 39.4026 51.7327 39.3621 51.7366C39.1969 51.7507 39.0437 51.8287 38.9352 51.9541C38.8266 52.0795 38.7713 52.2422 38.781 52.4078C38.7907 52.5733 38.8647 52.7285 38.9872 52.8403C39.1097 52.9521 39.2709 53.0117 39.4367 53.0063L44.3019 53.1927C44.3674 53.7351 44.4702 54.756 44.4037 56.085C44.3595 56.969 44.2248 57.8776 43.9639 58.5921C43.7137 59.2774 43.3602 59.7236 42.9029 59.9538L38.5719 59.9153C38.4025 59.914 38.2396 59.98 38.1189 60.0988C37.9982 60.2176 37.9296 60.3795 37.9283 60.5489C37.9269 60.7182 37.9929 60.8812 38.1117 61.0019C38.2306 61.1226 38.3925 61.1912 38.5618 61.1925L40.982 61.207L40.9671 64.0297L38.2537 67.2499L34.6284 65.1031C35.2229 64.9334 35.9273 64.8959 36.7703 65.0887C36.8519 65.1084 36.9367 65.1118 37.0196 65.0986C37.1025 65.0855 37.1821 65.056 37.2536 65.012C37.3251 64.968 37.3872 64.9103 37.4363 64.8421C37.4855 64.774 37.5206 64.6968 37.5398 64.6151C37.559 64.5333 37.5618 64.4486 37.548 64.3657C37.5343 64.2829 37.5044 64.2035 37.4599 64.1323C37.4154 64.0611 37.3572 63.9994 37.2888 63.9507C37.2203 63.9021 37.1429 63.8674 37.061 63.8488C34.9578 63.3622 33.3231 64.1041 32.3076 64.957C31.4946 65.6399 31.2643 66.1508 31.1075 66.4305L23.0593 66.0824C22.9494 66.0204 18.6301 63.6022 14.1936 60.8345C11.9473 59.4331 9.70392 57.9548 8.02394 56.7023C7.18393 56.0761 6.48476 55.5027 6.01376 55.04C5.54279 54.5774 5.36789 54.1487 5.37516 54.2499C4.58926 43.3139 6.42198 32.8095 6.48336 32.4534L12.0965 30.6619L10.7473 32.3789C10.6899 32.4441 10.6465 32.5204 10.6197 32.6031C10.5929 32.6857 10.5834 32.773 10.5916 32.8595C10.5999 32.946 10.6258 33.0298 10.6677 33.1059C10.7096 33.182 10.7666 33.2487 10.8353 33.3019C10.904 33.3551 10.9828 33.3937 11.067 33.4153C11.1512 33.4369 11.2388 33.441 11.3246 33.4274C11.4104 33.4137 11.4926 33.3827 11.5659 33.3361C11.6393 33.2896 11.7023 33.2285 11.7511 33.1566L14.38 29.8146C14.3859 29.8072 14.3917 29.7996 14.3973 29.792L27.4076 15.2585C27.4126 15.2529 27.4176 15.2471 27.4225 15.2412C27.4312 15.2308 27.4395 15.22 27.4475 15.209C27.4517 15.2033 27.4559 15.1975 27.46 15.1917C27.4678 15.1795 27.4752 15.167 27.4821 15.1542C27.4856 15.1485 27.4889 15.1427 27.4922 15.1369C27.493 15.1353 27.4939 15.1337 27.4947 15.1321C27.5141 15.0956 27.5298 15.0573 27.5418 15.0178C27.5836 14.8827 27.5792 14.7376 27.5293 14.6053C27.5254 14.5904 27.4757 14.3914 27.4572 14.3196C27.8639 14.2931 28.3985 14.2504 28.9555 14.178C29.5245 14.1039 30.1171 14.0003 30.6278 13.8401C31.1385 13.6797 31.648 13.5267 31.905 12.9281C32.0459 12.5998 32.0284 12.3323 32.0069 12.0088C31.9852 11.6853 31.9262 11.3232 31.8479 10.9279C31.6912 10.1372 31.4428 9.21198 31.1819 8.32632C30.8342 7.14565 30.5294 6.23168 30.3197 5.61793C30.5754 5.55364 30.8316 5.4893 31.0676 5.45391C31.3859 5.40631 31.6797 5.39523 31.925 5.40739ZM29.1098 5.9938C29.313 6.5853 29.6203 7.50172 29.9695 8.6873C30.2242 9.55217 30.4572 10.4508 30.6006 11.1746C30.6724 11.5364 30.7242 11.8607 30.7398 12.0964C30.7538 12.3027 30.7249 12.3978 30.7321 12.3921C30.6917 12.4022 30.5303 12.5403 30.2426 12.6306C29.8559 12.752 29.324 12.8527 28.7965 12.9213C28.1012 13.0118 27.5421 13.0458 27.159 13.063C27.0326 12.524 26.8984 11.9683 26.7664 11.3162C26.5898 10.4443 26.4346 9.53563 26.3539 8.80905C26.3135 8.44578 26.2955 8.12567 26.2993 7.88966C26.303 7.65367 26.3619 7.49197 26.3363 7.54178C26.3214 7.57111 26.6463 7.21315 27.1439 6.91315C27.6415 6.61316 28.3055 6.29341 29.0025 6.02858C29.0376 6.01511 29.0744 6.00678 29.1098 5.9938Z" fill="black" fill-opacity="0.944724"/>
</svg>
